<?xml version="1.0" encoding="utf-8"?>
<!-- Generator: Adobe Illustrator 16.0.3, SVG Export Plug-In . SVG Version: 6.00 Build 0)  -->
<!DOCTYPE svg PUBLIC "-//W3C//DTD SVG 1.1//EN" "http://www.w3.org/Graphics/SVG/1.1/DTD/svg11.dtd">
<svg version="1.1" id="Capa_1" xmlns="http://www.w3.org/2000/svg" xmlns:xlink="http://www.w3.org/1999/xlink" x="0px" y="0px"
	 width="595.279px" height="841.891px" viewBox="0 0 595.279 841.891" enable-background="new 0 0 595.279 841.891"
	 xml:space="preserve">
<g id="Group_7" transform="translate(-838.793 -336.22)">
	<g id="Group_6" transform="translate(1 2)">
		<g id="Group_5" transform="translate(-158 21)">
			<path id="Path_1" fill="#FFFFFF" stroke="#939292" stroke-width="4" stroke-miterlimit="10" d="M1584.571,477.45h-120.435
				l-74.281,62.029l6.591,21.271l-15.467,15.467l-2.37,64.893l-3.12,85.528l-45.519,40.777l-138.976,141.373h-43.128l-93.446-91.037
				l-35.939-50.317V745.87l153.351-146.163l91.037-52.716l44.627-17.126l41.583-20l17.401,6.468l83.29-72.375h134.85
				L1584.571,477.45z"/>
			<g id="Group_4" transform="translate(129 -33)">
				<path id="Path_4" fill="#FFFFFF" stroke="#939292" stroke-width="4" stroke-miterlimit="10" d="M934.539,1055.781
					c-19.287-10.948-35.253-26.913-46.202-46.2c-13.76-28.507-19.658-59.743-15.731-104.2c2.709-27.213,13.687-52.943,31.456-73.73
					l25.055,30.271c0,0-38.331,30.346-21.166,101.27c17.164,70.925,53.787,59.507,49.776,73.237
					C953.715,1050.157,934.539,1055.781,934.539,1055.781z"/>
			</g>
		</g>
		<path id="Path_5" fill="#FFFFFF" stroke="#939292" stroke-width="4" stroke-miterlimit="10" d="M1135.01,759.973
			c0,0-83.156-33.845-103.46,16.436c-13.382,34.818-23.734,70.729-30.942,107.328l-68.657-59.951l113.133-115.067h38.682"/>
		<path id="Path_6" fill="#FFFFFF" stroke="#939292" stroke-width="4" stroke-miterlimit="10" d="M1171.758,791.903l-164.38-162.444
			"/>
		<path id="Path_7" fill="#FFFFFF" stroke="#939292" stroke-width="4" stroke-miterlimit="10" d="M1038.312,883.765l87.993-90.896
			c0,0-51.209-23.205-62.854-7.738C1051.806,800.598,1038.312,883.765,1038.312,883.765z"/>
		<path id="Path_8" fill="#FFFFFF" stroke="#939292" stroke-width="4" stroke-miterlimit="10" d="M931.95,824.781l-26.106,26.106"/>
	</g>
</g>
<line fill="none" stroke="#939292" stroke-width="4" stroke-miterlimit="10" x1="372.437" y1="204.399" x2="395.812" y2="227.547"/>
<line fill="none" stroke="#9FA8DA" stroke-width="4" stroke-miterlimit="10" x1="395.812" y1="204.399" x2="426.14" y2="181.445"/>
<line fill="none" stroke="#9FA8DA" stroke-width="4" stroke-miterlimit="10" x1="444.14" y1="169.445" x2="469.14" y2="146.445"/>
<line fill="none" stroke="#9FA8DA" stroke-width="4" stroke-miterlimit="10" x1="395.812" y1="227.547" x2="470.094" y2="165.519"/>
<line fill="none" stroke="#9FA8DA" stroke-width="4" stroke-miterlimit="10" x1="470.094" y1="165.519" x2="590.528" y2="165.519"/>
<line fill="none" stroke="#9FA8DA" stroke-width="4" stroke-miterlimit="10" x1="590.528" y1="165.519" x2="590.576" y2="132.024"/>
<line fill="none" stroke="#9FA8DA" stroke-width="4" stroke-miterlimit="10" x1="590.576" y1="132.024" x2="455.727" y2="132.024"/>
<line fill="none" x1="455.727" y1="132.024" x2="372.437" y2="204.399"/>
<line fill="none" stroke="#9FA8DA" stroke-width="4" stroke-miterlimit="10" x1="455.727" y1="132.024" x2="470.094" y2="165.519"/>
<line fill="none" stroke="#9FA8DA" stroke-width="4" stroke-miterlimit="10" x1="590.576" y1="132.024" x2="590.528" y2="165.519"/>
<line fill="none" stroke="#9FA8DA" stroke-width="4" stroke-miterlimit="10" x1="459.756" y1="146.445" x2="563.647" y2="146.445"/>
<line fill="none" stroke="#9FA8DA" stroke-width="4" stroke-miterlimit="10" x1="462.909" y1="162.685" x2="526.131" y2="144.407"/>
<line fill="none" stroke="#9FA8DA" stroke-width="4" stroke-miterlimit="10" x1="466.845" y1="157.945" x2="501.119" y2="146.445"/>
<line fill="none" stroke="#9FA8DA" stroke-width="4" stroke-miterlimit="10" x1="451.489" y1="162.685" x2="483.982" y2="144.407"/>
<line fill="none" stroke="#9FA8DA" stroke-width="4" stroke-miterlimit="10" x1="453.984" y1="162.685" x2="483.982" y2="142.002"/>
<line fill="none" stroke="#9FA8DA" stroke-width="4" stroke-miterlimit="10" x1="456.64" y1="153.546" x2="486.21" y2="142.002"/>
<line fill="none" stroke="#9FA8DA" stroke-width="4" stroke-miterlimit="10" x1="462.909" y1="157.945" x2="511.7" y2="152.195"/>
<line fill="none" stroke="#9FA8DA" stroke-width="4" stroke-miterlimit="10" x1="460.007" y1="142.002" x2="483.982" y2="144.407"/>
<line fill="none" stroke="#9FA8DA" stroke-width="4" stroke-miterlimit="10" x1="462.909" y1="142.002" x2="501.119" y2="139.117"/>
<line fill="none" stroke="#9FA8DA" stroke-width="4" stroke-miterlimit="10" x1="480.359" y1="146.445" x2="523.152" y2="152.195"/>
<rect x="534.788" y="139.117" fill="#9FA8DA" stroke="#9FA8DA" stroke-width="4" stroke-miterlimit="10" width="52.427" height="18.829"/>
<rect x="459.756" y="132.024" fill="#9FA8DA" stroke="#9FA8DA" stroke-width="4" stroke-miterlimit="10" width="75.032" height="17.296"/>
<rect x="530.31" y="132.024" fill="#9FA8DA" stroke="#9FA8DA" stroke-width="4" stroke-miterlimit="10" width="56.904" height="7.092"/>
<rect x="526.131" y="148.771" fill="#9FA8DA" stroke="#9FA8DA" stroke-width="4" stroke-miterlimit="10" width="64.396" height="13.913"/>
<rect x="462.909" y="152.195" fill="#9FA8DA" stroke="#9FA8DA" stroke-width="4" stroke-miterlimit="10" width="74.283" height="10.489"/>
<rect x="387.129" y="192.922" fill="#9FA8DA" stroke="#9FA8DA" stroke-width="4" stroke-miterlimit="10" width="23.848" height="14.974"/>
<rect x="448.408" y="152.195" fill="#9FA8DA" stroke="#9FA8DA" stroke-width="4" stroke-miterlimit="10" width="31.95" height="13.323"/>
<rect x="421.587" y="169.445" fill="#9FA8DA" stroke="#9FA8DA" stroke-width="4" stroke-miterlimit="10" width="16.524" height="15.446"/>
<rect x="438.112" y="165.519" fill="#9FA8DA" width="18.528" height="9.671"/>
<rect x="451.489" y="165.519" fill="#9FA8DA" width="13.902" height="3.927"/>
<rect x="450.792" y="169.445" fill="#9FA8DA" width="11.206" height="0.909"/>
<rect x="451.489" y="172.739" fill="#9FA8DA" width="9.768" height="0.16"/>
<rect x="453.984" y="170.354" fill="#9FA8DA" width="7.271" height="2.384"/>
<rect x="453.001" y="170.354" fill="#9FA8DA" width="4.618" height="3.912"/>
<rect x="455.31" y="130.463" fill="#9FA8DA" width="7.6" height="27.482"/>
<rect x="455.31" y="130.463" fill="#9FA8DA" width="0.417" height="33.956"/>
<rect x="455.31" y="130.463" fill="#9FA8DA" width="5.945" height="7.133"/>
<rect x="454.596" y="131.188" transform="matrix(-0.6418 -0.7669 0.7669 -0.6418 647.3152 565.1886)" fill="#9FA8DA" width="2.109" height="0.469"/>
<rect x="454.874" y="130.463" fill="#9FA8DA" width="0.646" height="0.748"/>
<rect x="454.969" y="130.023" fill="#9FA8DA" width="0.759" height="0.44"/>
<rect x="454.594" y="130.586" fill="#9FA8DA" width="0.516" height="0.625"/>
<polygon fill="#9FA8DA" points="454.594,130.463 455.31,130.243 455.31,130.586 454.874,130.586 "/>
<rect x="454.594" y="130.586" fill="#9FA8DA" width="0.375" height="0.125"/>
<rect x="454.594" y="130.463" fill="#9FA8DA" width="0.516" height="0.123"/>
<polyline fill="#9FA8DA" points="454.344,130.837 454.969,130.243 454.969,130.023 454.452,130.463 454.566,130.625 454.452,130.54 
	454.656,130.648 454.594,130.711 "/>
<line fill="none" x1="454.344" y1="130.711" x2="454.951" y2="130.148"/>
<path fill="#9FA8DA" d="M454.969,130.023"/>
<path fill="#9FA8DA" d="M454.951,130.354"/>
<rect x="454.851" y="130.241" fill="#9FA8DA" width="0.459" height="0.222"/>
<rect x="454.452" y="130.54" fill="#9FA8DA" width="0.142" height="0.297"/>
<rect x="589.371" y="164.921" fill="#9FA8DA" width="3.104" height="2.57"/>
<rect x="572.708" y="153.132" fill="#9FA8DA" width="5.229" height="4.308"/>
<rect x="589.991" y="130.088" fill="#9FA8DA" width="2.482" height="2.748"/>
<rect x="550.284" y="137.977" fill="#9FA8DA" width="13.362" height="4.609"/>
<rect x="374.7" y="208.52" transform="matrix(-0.711 -0.7032 0.7032 -0.711 518.9247 634.5543)" fill="#9FA8DA" width="30.319" height="4.243"/>
<path fill="#FFFFFF" stroke="#9FA8DA" stroke-width="4" stroke-miterlimit="10" d="M384.691,213.623"/>
<rect x="372.213" y="211.508" transform="matrix(-0.711 -0.7032 0.7032 -0.711 512.1273 637.7354)" fill="#9FA8DA" width="29.801" height="4.243"/>
<rect x="382.267" y="196.533" fill="#9FA8DA" stroke="#9FA8DA" stroke-miterlimit="10" width="5.479" height="7.37"/>
<rect x="381.499" y="198.466" fill="#9FA8DA" stroke="#9FA8DA" stroke-miterlimit="10" width="3.509" height="2.478"/>
<rect x="398.052" y="182.966" fill="#9FA8DA" stroke="#9FA8DA" stroke-miterlimit="10" width="24.664" height="12.497"/>
<rect x="374.628" y="173.308" transform="matrix(-0.7608 0.6489 -0.6489 -0.7608 841.6124 45.083)" fill="#9FA8DA" stroke="#9FA8DA" stroke-miterlimit="10" width="75.741" height="8.635"/>
<rect x="397.799" y="177.875" transform="matrix(-0.7764 0.6302 -0.6302 -0.7764 893.5629 48.9366)" fill="#9FA8DA" stroke="#9FA8DA" stroke-miterlimit="10" width="80.604" height="10.194"/>
<rect x="380.841" y="170.337" transform="matrix(-0.7371 0.6758 -0.6758 -0.7371 867.9056 26.1307)" fill="#9FA8DA" stroke="#9FA8DA" stroke-miterlimit="10" width="96.058" height="23.105"/>
<rect x="444.076" y="133.732" transform="matrix(0.6362 0.7715 -0.7715 0.6362 276.1004 -292.9484)" fill="#9FA8DA" stroke="#9FA8DA" stroke-miterlimit="10" width="9.265" height="25.17"/>
<rect x="415.374" y="147.835" transform="matrix(-0.7492 0.6623 -0.6623 -0.7492 864.8939 -29.8977)" fill="#9FA8DA" width="45.467" height="1.916"/>
<polyline fill="#9FA8DA" points="380.906,194.258 383.695,196.533 375.041,204.653 372.437,201.637 "/>
<path fill="#9FA8DA" d="M410.385,172.898"/>
<line fill="none" stroke="#9FA8DA" stroke-miterlimit="10" x1="381.779" y1="195.723" x2="386.844" y2="190.508"/>
<line fill="none" stroke="#9FA8DA" stroke-miterlimit="10" x1="382.226" y1="196.766" x2="386.175" y2="193.116"/>
<line fill="none" stroke="#9FA8DA" stroke-miterlimit="10" x1="381.307" y1="196.394" x2="386.506" y2="192.175"/>
<line fill="none" stroke="#9FA8DA" stroke-miterlimit="10" x1="381.499" y1="194.838" x2="388.776" y2="188.402"/>
<rect x="381.198" y="194.084" fill="none" width="0.301" height="0.413"/>
<polygon fill="#9FA8DA" points="383.693,193.179 381.425,195.033 380.906,194.398 385.844,190.133 "/>
<polygon fill="#9FA8DA" points="459.143,135.672 389.712,195.985 385.176,190.755 454.602,130.443 "/>
<rect x="223.178" y="264.823" transform="matrix(-0.6984 0.7157 -0.7157 -0.6984 744.0924 252.762)" fill="#FF3D00" width="191.223" height="36.673"/>
<rect x="353.008" y="198.658" transform="matrix(-0.9392 -0.3433 0.3433 -0.9392 632.614 517.3453)" fill="#FF3D00" width="18.184" height="8.038"/>
<rect x="372.227" y="201.745" transform="matrix(-0.6995 0.7147 -0.7147 -0.6995 777.9202 77.5971)" fill="#FF3D00" width="0.835" height="1.243"/>
<rect x="155.45" y="346.175" transform="matrix(-0.7121 -0.7021 0.7021 -0.7121 199.592 814.1307)" fill="#FF3D00" width="222.548" height="39.933"/>
<rect x="277.004" y="335.79" fill="#FF3D00" width="47.316" height="32.096"/>
<rect x="333.965" y="317.591" fill="#FF3D00" width="47.269" height="54.927"/>
<rect x="346.371" y="261.669" transform="matrix(-0.9995 -0.0319 0.0319 -0.9995 721.3116 680.004)" fill="#FF3D00" width="39.418" height="145.159"/>
<rect x="339.88" y="401.63" transform="matrix(-0.9992 -0.0402 0.0402 -0.9992 706.3909 831.3589)" fill="#FF3D00" width="43.346" height="13.897"/>
<rect x="288.512" y="365.945" fill="#FF3D00" width="60.956" height="44.956"/>
<rect x="280.974" y="276.893" fill="#FF3D00" width="76.625" height="92.317"/>
<rect x="180.054" y="290.791" fill="#FF3D00" width="107.207" height="8.934"/>
<rect x="226.047" y="293.438" fill="#FF3D00" width="64.192" height="33.75"/>
<rect x="266.524" y="238.511" fill="#FF3D00" width="50.188" height="52.28"/>
<rect x="210.826" y="267.959" fill="#FF3D00" width="66.178" height="31.765"/>
<rect x="199.576" y="273.602" fill="#FF3D00" width="26.471" height="7.593"/>
<rect x="300.662" y="227.547" fill="#FF3D00" width="62.702" height="38.757"/>
<rect x="268.825" y="235.058" fill="#FF3D00" width="58.805" height="3.453"/>
<rect x="262.292" y="238.841" fill="#FF3D00" width="35.349" height="39.749"/>
<rect x="362.094" y="238.511" fill="#FF3D00" width="24.751" height="35.091"/>
<rect x="383.906" y="232.885" fill="#FF3D00" width="11.906" height="18.861"/>
<rect x="381.233" y="225.609" fill="#FF3D00" width="14.579" height="15.218"/>
<rect x="312.74" y="222.867" fill="#FF3D00" width="59.148" height="8.033"/>
<rect x="279.966" y="230.9" fill="#FF3D00" width="46.34" height="4.158"/>
<rect x="270.055" y="235.058" fill="#FF3D00" width="20.184" height="5.769"/>
<rect x="220.318" y="263.147" fill="#FF3D00" width="46.206" height="13.746"/>
<rect x="240.937" y="253.731" fill="#FF3D00" width="47.575" height="14.229"/>
<rect x="251.775" y="246.926" fill="#FF3D00" width="26.883" height="34.269"/>
<rect x="203.547" y="272.261" fill="#FF3D00" width="19.854" height="18.53"/>
<rect x="379.577" y="233.218" fill="#FF3D00" width="9.198" height="31.433"/>
<rect x="389.859" y="240.827" fill="#FF3D00" width="9.615" height="10.919"/>
<rect x="324.321" y="217.334" fill="#FF3D00" width="41.743" height="10.213"/>
<rect x="174.451" y="269.296" transform="matrix(-0.8685 0.4958 -0.4958 -0.8685 522.4951 407.3076)" fill="#FF3D00" width="65.519" height="7.352"/>
<rect x="168.21" y="290.195" transform="matrix(-0.7245 0.6892 -0.6892 -0.7245 503.0175 385.757)" fill="#FF3D00" width="12.423" height="6.406"/>
<rect x="169.443" y="293.782" fill="#FF3D00" width="14.021" height="4.076"/>
<rect x="177.817" y="292" fill="#FF3D00" width="4.691" height="3.257"/>
<rect x="182.509" y="289.133" fill="#FF3D00" width="5.301" height="3.269"/>
<rect x="179.185" y="290.074" fill="#FF3D00" width="3.757" height="2.969"/>
<rect x="178.931" y="289.539" fill="#FF3D00" width="0.094" height="0.164"/>
<rect x="177.817" y="288.635" fill="#FF3D00" width="3.779" height="1.714"/>
<rect x="176.453" y="286.799" fill="#FF3D00" width="3.253" height="1.205"/>
<rect x="176.92" y="287.401" fill="#FF3D00" width="3.565" height="2.22"/>
<rect x="173.082" y="295.819" fill="#FF3D00" width="5.621" height="2.915"/>
<rect x="171.214" y="298.734" fill="#FF3D00" width="11.729" height="0.478"/>
<rect x="174.863" y="297.865" fill="#FF3D00" width="1.868" height="2.998"/>
<rect x="173.082" y="297.865" fill="#FF3D00" width="2.715" height="2.693"/>
<rect x="171.952" y="297.561" fill="#FF3D00" width="2.487" height="2.693"/>
<rect x="173.516" y="299.724" fill="#FF3D00" width="1.736" height="1.963"/>
<polygon fill="#FF3D00" points="176.731,286.799 178.08,286.799 178.08,286.799 "/>
<rect x="176.731" y="286.31" fill="#FF3D00" width="1.349" height="0.913"/>
<line fill="none" stroke="#FF3D00" stroke-miterlimit="10" x1="167.706" y1="295.468" x2="177.091" y2="286.416"/>
<rect x="176.731" y="286.31" fill="#FF3D00" width="1.086" height="0.106"/>
<rect x="176.812" y="286.117" fill="#FF3D00" width="1.005" height="0.563"/>
<rect x="176.812" y="286.055" fill="#FF3D00" width="0.462" height="0.255"/>
<rect x="177.221" y="284.273" transform="matrix(-0.8634 0.5046 -0.5046 -0.8634 478.6228 439.014)" fill="#FF3D00" width="5.297" height="0.078"/>
<line fill="none" x1="181.148" y1="283.509" x2="176.575" y2="286.182"/>
<line fill="none" x1="167.296" y1="294.992" x2="172.671" y2="289.852"/>
<line fill="none" x1="167.296" y1="294.992" x2="173.196" y2="289.414"/>
<rect x="167.598" y="289.933" transform="matrix(-0.7243 0.6895 -0.6895 -0.7243 497.8698 381.1449)" fill="#FF3D00" width="10.267" height="0.36"/>
<rect x="166.211" y="298.863" transform="matrix(0.7312 0.6822 -0.6822 0.7312 250.3911 -36.8764)" fill="#FF3D00" stroke="#FF3D00" stroke-miterlimit="10" width="11.556" height="0.855"/>
<line fill="none" stroke="#FF3D00" stroke-width="3" stroke-miterlimit="10" x1="333.965" y1="457.683" x2="382.073" y2="414.149"/>
<rect x="352.804" y="398.604" fill="#FF3D00" stroke="#FF3D00" stroke-width="3" stroke-miterlimit="10" width="23.85" height="17.797"/>
<rect x="330.233" y="408.584" fill="#FF3D00" stroke="#FF3D00" stroke-width="3" stroke-miterlimit="10" width="29.542" height="10.461"/>
<rect x="335.77" y="412.231" fill="#FF3D00" stroke="#FF3D00" stroke-width="3" stroke-miterlimit="10" width="38.793" height="8.714"/>
<rect x="361.537" y="414.149" fill="#FF3D00" stroke="#FF3D00" stroke-width="3" stroke-miterlimit="10" width="4.526" height="11.71"/>
<rect x="368.988" y="416.064" fill="#FF3D00" stroke="#FF3D00" stroke-width="3" stroke-miterlimit="10" width="2.557" height="7.239"/>
<rect x="357.599" y="414.149" fill="#FF3D00" stroke="#FF3D00" stroke-width="3" stroke-miterlimit="10" width="3.938" height="9.154"/>
<rect x="355.166" y="416.588" fill="#FF3D00" stroke="#FF3D00" stroke-width="3" stroke-miterlimit="10" width="0" height="8.719"/>
<rect x="352.804" y="416.588" fill="#FF3D00" stroke="#FF3D00" stroke-width="3" stroke-miterlimit="10" width="2.361" height="9.271"/>
<rect x="357.599" y="418.727" fill="#FF3D00" stroke="#FF3D00" stroke-width="3" stroke-miterlimit="10" width="3.938" height="11.392"/>
<rect x="355.166" y="423.305" fill="#FF3D00" stroke="#FF3D00" stroke-width="3" stroke-miterlimit="10" width="2.434" height="11.223"/>
<rect x="349.469" y="430.118" fill="#FF3D00" stroke="#FF3D00" stroke-width="3" stroke-miterlimit="10" width="3.336" height="7.666"/>
<rect x="347.938" y="433.951" fill="#FF3D00" stroke="#FF3D00" stroke-width="3" stroke-miterlimit="10" width="3.198" height="7.906"/>
<rect x="339.603" y="439.487" fill="#FF3D00" stroke="#FF3D00" stroke-width="3" stroke-miterlimit="10" width="0" height="8.942"/>
<rect x="337.473" y="439.487" fill="#FF3D00" stroke="#FF3D00" stroke-width="3" stroke-miterlimit="10" width="7.53" height="6.106"/>
<rect x="344.048" y="435.916" fill="#FF3D00" stroke="#FF3D00" stroke-width="3" stroke-miterlimit="10" width="0.956" height="9.679"/>
<rect x="335.77" y="447.039" fill="#FF3D00" width="6.133" height="3.988"/>
<rect x="336.762" y="443.493" fill="#FF3D00" width="7.285" height="5.064"/>
<rect x="337.473" y="447.57" fill="#FF3D00" width="2.932" height="4.901"/>
<rect x="342.523" y="440.756" fill="#FF3D00" width="5.689" height="3.721"/>
<rect x="348.639" y="433.301" fill="#FF3D00" width="6.527" height="3.724"/>
<rect x="355.166" y="431.794" fill="#FF3D00" width="0" height="6.703"/>
<rect x="349.536" y="433.301" fill="#FF3D00" width="6.847" height="4.097"/>
<rect x="353.986" y="430.118" fill="#FF3D00" width="6.796" height="2.563"/>
<rect x="355.73" y="424.423" fill="#FF3D00" width="9.854" height="4.493"/>
<rect x="364.729" y="423.817" fill="#FF3D00" width="3.498" height="2.393"/>
<rect x="231.378" y="256.39" fill="#FF3D00" width="14.979" height="8.863"/>
<rect x="233.817" y="253.538" fill="#FF3D00" width="17.958" height="5.688"/>
<rect x="244.761" y="246.926" fill="#FF3D00" width="10.725" height="7.337"/>
<rect x="251.775" y="243.893" fill="#FF3D00" width="15.411" height="4.963"/>
<rect x="256.726" y="240.436" fill="#FF3D00" width="20.277" height="3.457"/>
<rect x="262.842" y="237.942" fill="#FF3D00" width="18.437" height="2.494"/>
<rect x="278.658" y="238.511" fill="#FF3D00" width="4.57" height="0.418"/>
<rect x="270.73" y="232.979" fill="#FF3D00" width="12.498" height="3.028"/>
<rect x="281.278" y="228.385" fill="#FF3D00" width="21.449" height="4.594"/>
<rect x="350.766" y="200.944" fill="#FF3D00" width="17.814" height="20.174"/>
<rect x="345.193" y="202.37" fill="#FF3D00" width="10.271" height="21.141"/>
<rect x="324.321" y="211.031" fill="#FF3D00" width="26.445" height="6.303"/>
<rect x="332.013" y="206.67" fill="#FF3D00" width="24.868" height="7.512"/>
<rect x="340.307" y="203.903" fill="#FF3D00" width="18.702" height="9.037"/>
<rect x="349.081" y="200.944" fill="#FF3D00" width="4.965" height="4.538"/>
<rect x="350.766" y="198.782" fill="#FF3D00" width="6.115" height="5.122"/>
<line fill="none" x1="318.795" y1="217.334" x2="355.464" y2="199.456"/>
<rect x="312.487" y="205.301" transform="matrix(-0.8987 0.4386 -0.4386 -0.8987 727.2836 246.7181)" fill="#FF3D00" width="45.318" height="4.116"/>
<rect x="322.935" y="214.183" fill="#FF3D00" width="6.913" height="12.701"/>
<rect x="318.795" y="215.363" fill="#FF3D00" width="12.384" height="15.538"/>
<rect x="311.856" y="217.334" fill="#FF3D00" width="13.13" height="8.835"/>
<rect x="307.508" y="221.472" fill="#FF3D00" width="5.231" height="14.536"/>
<rect x="309.374" y="220.533" fill="#FF3D00" width="6.647" height="8.738"/>
<rect x="301.22" y="223.132" fill="#FF3D00" width="8.153" height="3.752"/>
<rect x="300.662" y="222.44" fill="#FF3D00" width="10.484" height="9.135"/>
<rect x="288.014" y="226.169" fill="#FF3D00" width="16.751" height="4.786"/>
<ellipse transform="matrix(-0.3747 -0.9271 0.9271 -0.3747 211.5453 588.937)" fill="#FF3D00" cx="304.362" cy="223.135" rx="3.586" ry="18.389"/>
<ellipse transform="matrix(-0.403 -0.9152 0.9152 -0.403 235.931 589.1531)" fill="#FF3D00" cx="310.116" cy="217.628" rx="0.539" ry="14.514"/>
<ellipse transform="matrix(-0.4984 -0.867 0.867 -0.4984 146.8743 587.6263)" fill="#FF3D00" cx="243.436" cy="251.323" rx="3.28" ry="33.795"/>
<ellipse transform="matrix(-0.3476 -0.9376 0.9376 -0.3476 172.9628 577.1552)" fill="#FF3D00" cx="287.266" cy="228.406" rx="2.374" ry="20.262"/>
<ellipse transform="matrix(-0.4703 -0.8825 0.8825 -0.4703 174.8822 582.6564)" fill="#FF3D00" cx="262.304" cy="238.844" rx="1.984" ry="12.132"/>
<ellipse transform="matrix(-0.3195 -0.9476 0.9476 -0.3195 145.6582 566.4899)" fill="#FF3D00" cx="276.233" cy="230.945" rx="0.755" ry="4.975"/>
<ellipse transform="matrix(-0.3089 -0.9511 0.9511 -0.3089 135.6982 564.0354)" fill="#FF3D00" cx="272.778" cy="232.715" rx="1.108" ry="6.038"/>
<ellipse transform="matrix(-0.3284 -0.9445 0.9445 -0.3284 135.6329 565.4277)" fill="#FF3D00" cx="268.834" cy="234.494" rx="1.17" ry="4.621"/>
<ellipse transform="matrix(-0.462 -0.8869 0.8869 -0.462 182.8319 579.4611)" fill="#FF3D00" cx="267.183" cy="234.272" rx="0.409" ry="2.748"/>
<ellipse transform="matrix(-0.5088 -0.8609 0.8609 -0.5088 168.7715 584.0832)" fill="#FF3D00" cx="251.018" cy="243.893" rx="0.707" ry="19.942"/>
<ellipse transform="matrix(-0.5166 -0.8562 0.8562 -0.5166 112.9706 587.1313)" fill="#FF3D00" cx="222.229" cy="261.675" rx="1.551" ry="24.716"/>
<ellipse transform="matrix(-0.4972 -0.8677 0.8677 -0.4972 96.5757 584.0901)" fill="#FF3D00" cx="217.535" cy="264.061" rx="1.472" ry="15.955"/>
<ellipse transform="matrix(-0.4897 -0.8719 0.8719 -0.4897 74.52 583.6559)" fill="#FF3D00" cx="208.054" cy="270.021" rx="1.677" ry="12.607"/>
<ellipse transform="matrix(-0.5096 -0.8604 0.8604 -0.5096 64.1335 586.5174)" fill="#FF3D00" cx="199.217" cy="274.981" rx="1.741" ry="10.902"/>
<ellipse fill="#FF3D00" cx="393.693" cy="237.491" rx="6.565" ry="10.607"/>
<ellipse transform="matrix(-0.2332 -0.9724 0.9724 -0.2332 267.4164 670.7972)" fill="#FF3D00" cx="398.18" cy="229.966" rx="1.721" ry="0.465"/>
<ellipse transform="matrix(-0.4495 -0.8933 0.8933 -0.4495 372.2288 686.329)" fill="#FF3D00" cx="397.608" cy="228.462" rx="1.524" ry="0.562"/>
<rect x="399.297" y="234.189" transform="matrix(-0.9533 0.3021 -0.3021 -0.9533 855.3176 349.3969)" fill="#FF3D00" width="2.688" height="13.294"/>
<ellipse transform="matrix(-0.2687 -0.9632 0.9632 -0.2687 282.7884 676.7464)" fill="#FF3D00" cx="398.284" cy="231.028" rx="1.37" ry="0.593"/>
<polygon fill="#FF3D00" points="404.609,232.227 404.609,232.227 404.609,232.227 "/>
<ellipse transform="matrix(-0.3755 -0.9268 0.9268 -0.3755 334.1258 686.8843)" fill="#FF3D00" cx="398.467" cy="230.879" rx="0.974" ry="0.469"/>
<path fill="#FF3D00" d="M402.955,246.587c0.689,3.166-2.558,6.551-7.27,7.564c-4.698,1.012-9.063-0.737-9.737-3.904
	c-0.685-3.168,2.56-6.553,7.275-7.568C397.916,241.671,402.284,243.417,402.955,246.587z"/>
<ellipse fill="#FF3D00" cx="399.969" cy="242.664" rx="0.922" ry="1.563"/>
<polygon fill="#FF3D00" points="404.598,249.484 392.536,261.521 390.865,259.395 402.565,247.483 "/>
<polyline fill="#FF3D00" points="400.56,253.474 388.498,265.511 386.826,263.384 "/>
<path fill="#FF3D00" d="M400.556,235.756c-0.132-0.234-0.248-0.477-0.343-0.732l1.714,14.713l2.672-0.422l-3.541-12.542
	C400.866,236.447,400.702,236.105,400.556,235.756z"/>
<polyline fill="#FFFFFF" points="403.198,244.536 398.13,228.267 400.789,227.772 "/>
<polyline fill="#FFFFFF" points="404.544,248.99 399.474,232.722 402.135,232.227 "/>
<ellipse fill="#FF3D00" cx="390.626" cy="256.029" rx="3.067" ry="2.875"/>
<ellipse fill="#FF3D00" cx="394.077" cy="255.05" rx="2.521" ry="1.896"/>
<ellipse fill="#FF3D00" cx="388.869" cy="259.733" rx="2.688" ry="1.788"/>
<ellipse fill="#FF3D00" cx="388.845" cy="262.037" rx="1.289" ry="0.951"/>
<path fill="#FF3D00" d="M388.03,278.905c0.093,0.251,0.169,0.511,0.223,0.778l0.656-14.798l-2.704-0.01l1.491,12.946
	C387.832,278.173,387.94,278.537,388.03,278.905z"/>
<path fill="#FF3D00" d="M387.613,287.28c0.093,0.251,0.169,0.511,0.223,0.778l0.656-14.798l-2.704-0.01l1.491,12.946
	C387.415,286.548,387.523,286.912,387.613,287.28z"/>
<path fill="#FF3D00" d="M387.631,286.879c0.091,0.252,0.165,0.512,0.216,0.78l0.775-14.792l-2.702-0.032l1.386,12.958
	C387.439,286.146,387.544,286.511,387.631,286.879z"/>
<path fill="#FF3D00" d="M387.613,290.311c0.093,0.251,0.169,0.511,0.223,0.778l0.656-14.798l-2.704-0.01l1.491,12.946
	C387.415,289.579,387.523,289.943,387.613,290.311z"/>
<path fill="#FF3D00" d="M387.343,297.842c0.093,0.251,0.169,0.511,0.222,0.778l0.657-14.798l-2.704-0.01l1.491,12.946
	C387.145,297.11,387.253,297.474,387.343,297.842z"/>
<path fill="#FF3D00" d="M386.968,307.03c0.093,0.251,0.169,0.511,0.222,0.778l0.657-14.798l-2.704-0.01l1.491,12.946
	C386.77,306.298,386.878,306.662,386.968,307.03z"/>
<path fill="#FF3D00" d="M386.78,312.405c0.093,0.251,0.169,0.511,0.223,0.778l0.656-14.798l-2.704-0.01l1.491,12.946
	C386.582,311.673,386.69,312.037,386.78,312.405z"/>
<path fill="#FF3D00" d="M387.078,308.735c0.099,0.25,0.179,0.508,0.234,0.774l0.415-14.807l-2.703,0.034l1.702,12.92
	C386.869,308.006,386.983,308.369,387.078,308.735z"/>
<path fill="#FF3D00" d="M386.85,310.999c0.093,0.251,0.169,0.511,0.222,0.778l0.657-14.798l-2.704-0.01l1.491,12.946
	C386.653,310.267,386.76,310.63,386.85,310.999z"/>
<path fill="#FF3D00" d="M386.436,323.342c0.093,0.251,0.169,0.511,0.222,0.778l0.657-14.798l-2.704-0.01l1.491,12.946
	C386.239,322.61,386.346,322.974,386.436,323.342z"/>
<path fill="#FF3D00" d="M386.436,322.905c0.093,0.251,0.169,0.511,0.222,0.778l0.657-14.798l-2.704-0.01l1.491,12.946
	C386.239,322.173,386.346,322.537,386.436,322.905z"/>
<path fill="#FF3D00" d="M385.936,336.155c0.093,0.251,0.169,0.511,0.222,0.778l0.657-14.798l-2.704-0.01l1.491,12.946
	C385.739,335.423,385.846,335.787,385.936,336.155z"/>
<path fill="#FF3D00" d="M385.498,347.811c0.094,0.251,0.169,0.511,0.223,0.778l0.657-14.798l-2.704-0.01l1.49,12.946
	C385.302,347.079,385.408,347.443,385.498,347.811z"/>
<path fill="#FF3D00" d="M385.342,353.625c0.093,0.251,0.169,0.511,0.222,0.778l0.657-14.798l-2.704-0.01l1.491,12.946
	C385.144,352.893,385.252,353.257,385.342,353.625z"/>
<path fill="#FF3D00" d="M385.342,353.061c0.093,0.251,0.169,0.511,0.222,0.778l0.657-14.798l-2.704-0.01l1.491,12.946
	C385.144,352.329,385.252,352.693,385.342,353.061z"/>
<path fill="#FF3D00" d="M384.802,369.165c0.125,0.285,0.228,0.579,0.301,0.882l0.556-16.897l-3.486,0.049l2.18,14.736
	C384.532,368.334,384.678,368.747,384.802,369.165z"/>
<path fill="#FF3D00" d="M384.207,384.727c0.125,0.285,0.229,0.579,0.302,0.882l0.556-16.897l-3.487,0.049l2.181,14.736
	C383.939,383.896,384.085,384.31,384.207,384.727z"/>
<path fill="#FF3D00" d="M383.677,400.383c0.125,0.285,0.228,0.579,0.301,0.882l0.556-16.896l-3.486,0.049l2.18,14.736
	C383.407,399.553,383.553,399.966,383.677,400.383z"/>
<path fill="#FF3D00" d="M383.145,414.758c0.125,0.285,0.228,0.579,0.301,0.882l0.557-16.896l-3.487,0.049l2.18,14.736
	C382.877,413.928,383.022,414.341,383.145,414.758z"/>
<path fill="#FF3D00" d="M371.018,426.227c-0.119,0.287-0.261,0.566-0.429,0.828l12.565-11.309l-2.452-2.48l-9.112,11.785
	C371.43,425.457,371.232,425.85,371.018,426.227z"/>
<ellipse fill="#FF3D00" cx="382.98" cy="414.895" rx="0.465" ry="0.746"/>
<path fill="#FCFCFC" d="M383.594,415.723c0.117-0.287,0.261-0.563,0.427-0.828l-12.546,11.381l2.441,2.434l9.104-11.81
	C383.18,416.492,383.377,416.101,383.594,415.723z"/>
<path fill="#FF3D00" d="M358.631,437.346c-0.117,0.328-0.262,0.644-0.435,0.938l13.481-12.199l-2.901-3.134l-9.57,13.062
	C359.05,436.477,358.851,436.92,358.631,437.346z"/>
<path fill="#FF3D00" d="M371.173,425.848c-0.123,0.285-0.269,0.562-0.44,0.822l12.74-11.114l-2.413-2.518l-9.295,11.642
	C371.596,425.086,371.394,425.473,371.173,425.848z"/>
<path fill="#FF3D00" d="M346.761,447.537c-0.125,0.284-0.271,0.561-0.444,0.82l12.787-11.061l-2.402-2.527l-9.345,11.603
	C347.189,446.776,346.984,447.163,346.761,447.537z"/>
<path fill="#FF3D00" d="M350.905,444.458c-0.101,0.162-0.213,0.321-0.339,0.478l8.538-7.448l-1.151-0.909l-6.585,7.208
	C351.229,444.013,351.072,444.237,350.905,444.458z"/>
<path fill="#FF3D00" d="M347.742,447.281c-0.071,0.169-0.16,0.333-0.262,0.488l7.687-6.849l-1.468-1.378l-5.599,7.042
	C347.999,446.825,347.879,447.057,347.742,447.281z"/>
<path fill="#FF3D00" d="M340.607,453.646c-0.072,0.169-0.16,0.332-0.262,0.488l7.686-6.849l-1.467-1.378l-5.599,7.042
	C340.864,453.189,340.742,453.421,340.607,453.646z"/>
<path fill="#FF3D00" d="M339.024,455.094c-0.072,0.169-0.16,0.333-0.262,0.489l7.686-6.849l-1.467-1.378l-5.599,7.042
	C339.281,454.638,339.159,454.869,339.024,455.094z"/>
<path fill="#FF3D00" d="M327.167,453.523c-0.172-0.067-0.334-0.146-0.492-0.239l6.834,6.916l1.42-1.286l-7.063-5.064
	C327.626,453.756,327.393,453.646,327.167,453.523z"/>
<polygon fill="#FF3D00" points="339.142,455.241 335.909,458.288 335.42,457.841 338.648,454.79 "/>
<polygon fill="#FF3D00" points="338.071,455.938 333.821,460.478 333.08,459.695 337.322,455.147 "/>
<polygon fill="#FF3D00" points="333.741,458.836 337.224,454.938 337.969,455.73 334.493,459.638 "/>
<path fill="#FF3D00" d="M336.513,457.51c0.083,0.079-0.231,0.49-0.702,0.921c-0.468,0.43-0.913,0.714-0.995,0.636
	c-0.084-0.078,0.229-0.488,0.695-0.918C335.981,457.717,336.429,457.432,336.513,457.51z"/>
<path fill="#FF3D00" d="M336.092,457.916c0.083,0.079-0.231,0.49-0.702,0.921c-0.468,0.429-0.913,0.714-0.995,0.635
	c-0.084-0.078,0.228-0.487,0.695-0.918C335.559,458.123,336.008,457.838,336.092,457.916z"/>
<path fill="#FF3D00" d="M335.842,458.194c0.083,0.079-0.231,0.489-0.702,0.921c-0.468,0.429-0.913,0.714-0.995,0.635
	c-0.084-0.078,0.228-0.488,0.695-0.918C335.309,458.401,335.758,458.116,335.842,458.194z"/>
<path fill="#FF3D00" d="M334.917,457.002c0.387,0.364,0.214,0.91-0.379,1.227c-0.587,0.316-1.366,0.284-1.749-0.078
	c-0.387-0.363-0.221-0.912,0.364-1.23C333.742,456.601,334.531,456.639,334.917,457.002z"/>
<path fill="#FF3D00" d="M334.2,455.925c0.083,0.079-0.23,0.49-0.702,0.921c-0.468,0.43-0.912,0.714-0.994,0.636
	c-0.084-0.078,0.228-0.488,0.694-0.919C333.669,456.132,334.116,455.847,334.2,455.925z"/>
<ellipse fill="#DD2C00" stroke="#DD2C00" stroke-width="4" stroke-miterlimit="10" cx="128.014" cy="380.325" rx="37.125" ry="14.371"/>
<ellipse fill="#DD2C00" stroke="#DD2C00" stroke-width="4" stroke-miterlimit="10" cx="88.389" cy="423.07" rx="25" ry="7.125"/>
<ellipse fill="#DD2C00" stroke="#DD2C00" stroke-width="4" stroke-miterlimit="10" cx="150.264" cy="376.32" rx="44.375" ry="30.625"/>
<path fill="#DD2C00" d="M98.006,359.685c0.887-0.974,1.818-1.967,2.793-2.97l-56.481,52.943l1.827,1.995l47.987-47.813
	C95.371,362.469,96.676,361.077,98.006,359.685z"/>
<path fill="#DD2C00" d="M69.065,391.439c0.53-0.847,1.116-1.683,1.764-2.496l-42.479,38.09l4.919,5.217l33.382-37.289
	C67.385,393.762,68.204,392.589,69.065,391.439z"/>
<ellipse transform="matrix(0.788 -0.6157 0.6157 0.788 -255.2937 115.5312)" fill="#DD2C00" cx="40.102" cy="428.446" rx="14.478" ry="4.561"/>
<rect x="27.248" y="414.506" transform="matrix(0.7246 -0.6891 0.6891 0.7246 -275.7216 141.8732)" fill="#DD2C00" width="24.833" height="2.879"/>
<rect x="19.873" y="421.631" transform="matrix(0.7246 -0.6891 0.6891 0.7246 -282.6625 138.7528)" fill="#DD2C00" width="24.833" height="2.879"/>
<rect x="21.498" y="423.193" transform="matrix(0.7246 -0.6891 0.6891 0.7246 -283.2918 140.3029)" fill="#DD2C00" width="24.833" height="2.879"/>
<rect x="45.06" y="397.506" transform="matrix(0.7246 -0.6891 0.6891 0.7246 -259.1012 149.4672)" fill="#DD2C00" width="24.833" height="2.879"/>
<rect x="59.623" y="383.656" transform="matrix(0.7246 -0.6891 0.6891 0.7246 -245.5468 155.689)" fill="#DD2C00" width="24.833" height="2.879"/>
<rect x="77.31" y="366.881" transform="matrix(0.7246 -0.6891 0.6891 0.7246 -229.1156 163.2587)" fill="#DD2C00" width="24.833" height="2.879"/>
<rect x="95.248" y="349.756" transform="matrix(0.7246 -0.6891 0.6891 0.7246 -212.3746 170.9044)" fill="#DD2C00" width="24.833" height="2.879"/>
<rect x="101.888" y="319.894" transform="matrix(0.7246 -0.6891 0.6891 0.7246 -183.1708 184.271)" fill="#DD2C00" width="74.203" height="2.879"/>
<rect x="145.067" y="302.106" transform="matrix(0.7246 -0.6891 0.6891 0.7246 -165.8183 192.115)" fill="#DD2C00" width="24.833" height="2.879"/>
<polygon fill="#DD2C00" points="221.665,352.853 203.665,369.961 147.494,310.898 165.487,293.783 "/>
<polygon fill="#DD2C00" points="205.819,372.176 187.82,389.284 131.648,330.221 149.641,313.105 "/>
<polygon fill="#DD2C00" points="187.734,389.301 169.734,406.409 113.563,347.346 131.555,330.23 "/>
<polygon fill="#DD2C00" points="160.435,415.676 142.436,432.785 86.264,373.722 104.257,356.606 "/>
<polygon fill="#DD2C00" points="142.975,431.577 124.975,448.686 68.804,389.623 86.797,372.507 "/>
<polygon fill="#DD2C00" points="113.389,460.894 95.39,478.003 39.219,418.939 57.211,401.823 "/>
<polygon fill="#DD2C00" points="126.819,446.525 108.82,463.635 52.648,404.571 70.641,387.456 "/>
<polygon fill="#DD2C00" points="160.435,414.254 142.436,431.362 86.264,372.299 104.257,355.184 "/>
<polygon fill="#DD2C00" points="100.475,475.016 82.475,492.124 26.304,433.061 44.297,415.945 "/>
<polygon fill="#DD2C00" points="96.471,477.903 78.471,495.012 22.3,435.949 40.293,418.833 "/>
<polygon fill="#DD2C00" points="97.87,484.171 79.871,501.28 30.898,449.785 48.89,432.67 "/>
<polygon fill="#DD2C00" points="129.83,416.307 147.496,433.759 90.23,491.762 72.558,474.316 "/>
<polygon fill="#DD2C00" points="112.207,439.063 129.873,456.516 72.607,514.519 54.935,497.073 "/>
<polygon fill="#DD2C00" points="142.769,407.461 160.435,424.913 103.169,482.916 85.497,465.471 "/>
<polygon fill="#DD2C00" points="180.238,369.218 197.905,386.669 140.638,444.672 122.966,427.227 "/>
<polygon fill="#DD2C00" points="197.372,347.369 215.038,364.82 157.772,422.822 140.1,405.378 "/>
<polygon fill="#DD2C00" points="137.456,322.29 155.123,339.742 97.857,397.745 80.184,380.299 "/>
<polygon fill="#DD2C00" points="245.951,367.367 246.001,376.454 188.327,376.805 188.271,367.718 "/>
<polygon fill="#DD2C00" points="242.701,359.677 242.751,368.764 185.077,369.115 185.021,360.028 "/>
<polygon fill="#DD2C00" points="240.201,351.555 240.251,360.642 182.577,360.993 182.521,351.906 "/>
<polygon fill="#DD2C00" points="224.009,352.207 216.039,359.677 171.591,312.311 179.557,304.836 "/>
<polygon fill="#FF3D00" points="203.673,276.893 353.983,423.584 325.948,452.02 165.489,293.945 "/>
<polygon fill="#DD2C00" points="208.074,341.185 225.74,358.637 168.474,416.639 150.802,399.194 "/>
<polygon fill="#DD2C00" points="94.879,489.563 64.934,506.944 21.139,454.945 37.802,431.362 "/>
<rect x="37.052" y="451.992" transform="matrix(0.8077 -0.5896 0.5896 0.8077 -272.6005 115.8958)" fill="#DD2C00" width="8.624" height="47.689"/>
<polygon fill="#DD2C00" points="64.384,500.524 57.139,505.609 29.299,467.093 36.265,462.008 "/>
<rect x="68.412" y="478.051" transform="matrix(-0.7107 -0.7035 0.7035 -0.7107 -218.0099 905.8592)" fill="#DD2C00" width="17.72" height="39.418"/>
<polygon fill="#DD2C00" points="20.906,431.86 25.469,431.788 25.829,454.13 20.921,454.898 "/>
<polygon fill="#DD2C00" points="25.485,432.757 20.901,431.852 22.938,429.977 25.518,431.195 "/>
<polygon fill="#DD2C00" points="20.921,454.898 23.383,453.825 25.989,457.108 23.972,459.131 "/>
<rect x="24.307" y="438.06" fill="#DD2C00" width="9.607" height="13.96"/>
<polygon fill="#455A64" points="147.496,593.113 69.704,518.002 97.433,489.985 161.014,545.07 "/>
<polygon fill="#455A64" points="151.389,597.495 147.496,593.113 146.514,586.32 160.365,547.377 161.014,545.07 196.389,597.495 
	"/>
<polygon fill="#455A64" points="206.139,527.778 203.639,543.383 196.389,597.495 161.49,545.774 "/>
<polygon fill="#455A64" points="221.598,458.694 224.139,457.683 221.556,464.529 220.889,466.196 219.004,471.786 220.171,466.704 
	206.139,527.778 185.389,538.611 161.49,545.774 171.014,504.82 178.639,480.445 "/>
<path fill="#455A64" d="M171.943,509.799"/>
<path fill="#455A64" d="M169.764,508.101"/>
<path fill="#455A64" d="M171.68,506.956"/>
<polygon fill="#455A64" points="237.723,429.196 224.139,457.683 202.264,475.07 178.639,480.445 182.973,466.196 188.639,450.196 
	192.056,441.196 194.639,435.779 196.389,432.785 199.139,429.279 201.389,426.779 203.639,424.696 206.139,422.823 
	208.639,420.945 214.639,417.863 219.889,415.779 224.139,414.696 "/>
<path fill="#FFFFFF" stroke="#939292" stroke-width="4" stroke-miterlimit="10" d="M220.171,466.704"/>
<polygon fill="#455A64" points="274.389,417.57 269.806,428.883 237.723,447.57 230.181,447.32 229.324,448.681 228.931,449.737 
	228.931,449.737 225.652,454.511 225.389,451.758 224.139,414.696 227.973,413.779 232.014,413.279 234.639,412.945 
	240.952,412.633 245.077,412.633 251.452,413.008 251.452,413.008 254.827,413.258 257.639,413.633 263.702,414.445 269.702,415.57 
	274.389,416.64 "/>
<polygon fill="#455A64" points="233.603,447.02 232.874,448.492 231.858,448.508 232.874,448.492 232.296,448.677 230.749,449.32 
	230.956,449.107 230.749,449.32 228.029,451.051 230.181,447.32 233.18,446.303 "/>
<rect x="228.327" y="446.883" fill="#455A64" width="2.203" height="1.984"/>
<polygon fill="#455A64" points="228.81,450.168 227.694,451.099 227.639,451.618 228.96,450.349 "/>
<rect x="228.327" y="448.539" fill="#455A64" width="1.266" height="0.531"/>
<polygon fill="#455A64" points="235.655,447.105 235.747,447.505 238.28,447.383 237.296,447.695 235.733,447.875 235.124,448.008 
	234.405,448.133 233.603,448.336 232.874,448.492 233.249,447.32 234.589,447.105 "/>
<polygon fill="#455A64" points="274.389,447.875 262.702,451.367 258.764,450.336 256.061,449.648 252.858,448.977 250.327,448.492 
	247.452,448.086 245.014,447.799 243.03,447.695 237.296,447.695 239.843,445.133 252.228,439.121 274.389,416.64 277.889,417.529 
	280.973,418.279 287.29,420.239 290.671,421.289 294.473,422.633 296.145,423.188 297.358,424.384 297.639,424.661 299.764,426.757 
	302.991,429.938 307.617,434.498 312.007,438.827 307.358,439.852 "/>
<polygon fill="#455A64" points="289.754,457.813 285.046,459.336 283.858,458.836 283.218,458.586 282.78,458.367 282.093,458.102 
	281.343,457.805 280.671,457.523 280.093,457.289 279.186,456.945 278.483,456.695 277.374,456.273 276.327,455.867 
	275.343,455.508 273.155,454.711 272.093,454.383 269.702,453.57 267.014,452.633 262.702,451.367 265.686,448.117 267.108,448.523 
	268.124,448.852 269.061,449.148 284.921,441.445 289.764,439.383 291.014,440.945 289.139,449.227 290.108,451.789 
	293.171,454.511 291.296,455.32 292.139,455.883 292.796,457.07 290.483,457.539 "/>
<polygon fill="#455A64" points="332.189,458.865 332.189,459.079 329.546,461.727 317.639,474.112 287.306,504.445 244.516,548.612 
	196.889,596.611 196.389,597.495 187.723,596.611 201.806,545.774 221.054,526.025 240.806,504.945 289.233,456.07 288.733,444.039 
	308.396,435.268 324.218,450.866 "/>
<path fill="#455A64" d="M199.639,466.704"/>
<line fill="#455A64" x1="200.519" y1="469.499" x2="201.056" y2="474.028"/>
<path fill="#455A64" d="M180.889,565.32"/>
<path fill="#455A64" d="M177.514,560.445"/>
<line fill="#455A64" x1="174.389" y1="560.01" x2="182.014" y2="562.637"/>
<polyline fill="#455A64" points="161.49,565.32 154.471,568.324 153.264,551.695 "/>
<path fill="#455A64" d="M177.514,560.01"/>
<line fill="#455A64" x1="180.889" y1="554.695" x2="168.888" y2="556.739"/>
<polygon fill="#455A64" points="196.389,597.495 161.014,554.695 161.49,545.774 174.389,550.195 "/>
<polygon fill="#455A64" points="38.639,580.383 38.764,584.258 39.139,593.695 39.827,599.133 40.764,605.07 41.764,610.695 
	43.077,616.633 45.139,624.445 46.952,630.383 48.514,634.57 50.702,640.32 52.327,643.945 54.764,649.133 57.577,654.07 
	61.014,659.32 62.764,661.508 65.452,664.82 69.264,668.633 73.139,671.883 77.389,675.008 82.952,678.258 85.639,679.664 
	87.264,680.602 88.733,681.508 89.889,682.289 91.238,683.508 91.624,683.945 91.921,684.32 92.171,684.695 92.389,685.055 
	92.671,685.57 92.952,686.305 93.046,686.742 93.155,687.195 93.186,687.57 93.264,688.148 93.186,689.18 93.014,690.055 
	92.764,691.117 92.327,692.32 90.889,695.258 87.514,700.008 84.577,702.695 81.514,705.07 77.264,707.695 71.702,710.258 
	67.577,711.695 66.514,711.133 63.702,709.561 59.702,706.945 55.764,704.258 52.952,702.133 46.389,696.883 41.764,692.633 
	35.921,686.445 31.764,681.883 28.514,677.508 24.952,672.633 20.889,666.32 18.327,661.133 14.764,653.008 11.952,645.195 
	10.077,639.57 8.139,632.195 5.577,620.32 4.619,613.695 4.077,610.445 3.827,607.385 3.327,602.508 2.952,596.57 2.577,584.508 
	2.889,575.133 3.389,564.758 4.327,554.383 5.327,548.695 6.389,543.195 9.327,532.07 10.827,527.258 12.702,522.82 14.764,517.195 
	20.702,505.609 24.577,498.984 27.827,494.109 32.202,488.109 37.327,482.047 45.264,491.851 51.702,499.758 60.014,509.82 
	65.139,516.008 61.514,519.133 58.389,522.508 55.952,525.508 52.452,530.57 48.702,537.07 44.889,545.758 43.827,548.633 
	42.264,554.32 40.514,561.758 40.077,564.383 39.827,566.008 39.639,567.32 39.202,571.195 "/>
<line fill="#455A64" x1="20.353" y1="510.465" x2="18.671" y2="515.854"/>
<path fill="#455A64" d="M37.827,592.195"/>
<path fill="#455A64" d="M30.014,661.133"/>
<polygon fill="#DD2C00" points="224.819,356.264 206.82,373.372 150.648,314.309 168.641,297.193 "/>
</svg>
